<?xml version="1.0" encoding="utf-8"?>
<!-- Generator: Adobe Illustrator 16.0.0, SVG Export Plug-In . SVG Version: 6.00 Build 0)  -->
<svg version="1.2" baseProfile="tiny" id="Layer_1" xmlns="http://www.w3.org/2000/svg" xmlns:xlink="http://www.w3.org/1999/xlink"
	 x="0px" y="0px" width="320px" height="90px" viewBox="0 0 320 90" xml:space="preserve">
<path fill="#8E8E8E" d="M21.064,61.625L4.917,37.549h-0.26c0.304,1.908,0.456,4.174,0.456,6.799v17.277H0v-27.16h8.334L23.409,56.87
	h0.261l15.204-22.405h8.27v27.16h-5.535v-17.5c0-2.006,0.151-4.186,0.456-6.54h-0.261L25.525,61.625H21.064z"/>
<path fill="#8E8E8E" d="M66.03,48.045l12.698-13.58h5.99L68.83,51.092v10.533H63.23V51.24L47.375,34.465h6.055L66.03,48.045z"/>
<path fill="#8E8E8E" d="M173.817,48.009c0,4.346-2.279,7.765-6.836,10.255c-4.559,2.488-10.896,3.732-19.009,3.732
	c-8.295,0-14.694-1.223-19.202-3.669c-4.506-2.445-6.76-5.896-6.76-10.355c0-4.422,2.26-7.85,6.78-10.283s10.94-3.65,19.259-3.65
	c8.088,0,14.405,1.238,18.951,3.715C171.546,40.23,173.817,43.649,173.817,48.009z M128.945,48.009c0,3.678,1.625,6.467,4.873,8.368
	c3.248,1.9,7.965,2.852,14.155,2.852c6.241,0,10.952-0.946,14.138-2.841c3.182-1.896,4.774-4.688,4.774-8.379
	c0-3.654-1.586-6.425-4.757-8.314c-3.172-1.889-7.865-2.833-14.078-2.833c-6.239,0-10.984,0.95-14.232,2.852
	S128.945,44.38,128.945,48.009z"/>
<path fill="#8E8E8E" d="M217,61.625h-7.337l-30.211-22.794h-0.304c0.403,2.675,0.606,5.127,0.606,7.355v15.438h-5.938v-27.16h7.261
	l30.136,22.701h0.303c-0.051-0.334-0.163-1.408-0.341-3.223c-0.176-1.814-0.24-3.112-0.188-3.892V34.465H217V61.625z"/>
<polygon fill="#F9BE09" points="88.259,73.465 110.499,52.533 100.032,45.338 "/>
<polygon fill="#3D60B9" points="85.903,30.623 112.592,51.293 101.225,61.262 "/>
<polygon fill="#E4E4E4" points="123.913,59.436 100.221,40.162 110.141,32.23 "/>
<polygon fill="#C0131F" points="123.172,16.535 98.044,39.076 110.101,48.199 "/>
</svg>
