<?xml version="1.0" encoding="utf-8"?>
<!-- Generator: Adobe Illustrator 16.0.0, SVG Export Plug-In . SVG Version: 6.00 Build 0)  -->
<svg version="1.2" baseProfile="tiny" id="Layer_1" xmlns="http://www.w3.org/2000/svg" xmlns:xlink="http://www.w3.org/1999/xlink"
	 x="0px" y="0px" width="320px" height="80px" viewBox="0 0 320 80" xml:space="preserve">
<path fill="#8E8E8E" d="M40.177,62.875l-22.101-32.95H17.72c0.416,2.611,0.624,5.712,0.624,9.305v23.645h-6.995v-37.17h11.406
	l20.63,30.662h0.357l20.808-30.662h11.318v37.17h-7.575v-23.95c0-2.746,0.207-5.729,0.624-8.95H68.56L46.281,62.875H40.177z"/>
<path fill="#8E8E8E" d="M101.716,44.29l17.377-18.585h8.198l-21.744,22.754v14.416h-7.663V48.662l-21.7-22.958h8.288L101.716,44.29z
	"/>
<path fill="#8E8E8E" d="M249.234,44.239c0,5.949-3.12,10.628-9.357,14.034c-6.238,3.406-14.911,5.109-26.015,5.109
	c-11.353,0-20.11-1.673-26.279-5.021c-6.167-3.346-9.252-8.071-9.252-14.172c0-6.053,3.094-10.743,9.279-14.074
	c6.185-3.331,14.973-4.996,26.357-4.996c11.069,0,19.716,1.695,25.937,5.085C246.125,33.594,249.234,38.272,249.234,44.239z
	 M187.821,44.239c0,5.033,2.224,8.852,6.669,11.453s10.901,3.902,19.372,3.902c8.541,0,14.988-1.295,19.349-3.888
	c4.355-2.594,6.535-6.417,6.535-11.468c0-5-2.171-8.793-6.511-11.378c-4.342-2.585-10.764-3.877-19.268-3.877
	c-8.539,0-15.032,1.301-19.478,3.903C190.045,35.489,187.821,39.273,187.821,44.239z"/>
<path fill="#8E8E8E" d="M308.333,62.875h-10.04l-41.348-31.196h-0.415c0.551,3.661,0.829,7.018,0.829,10.068v21.128h-8.125v-37.17
	h9.936l41.244,31.068h0.414c-0.068-0.456-0.224-1.928-0.465-4.41c-0.242-2.483-0.329-4.26-0.26-5.326V25.705h8.229V62.875z"/>
<polygon fill="#F9BE09" points="132.138,79.079 162.575,50.432 148.252,40.584 "/>
<polygon fill="#3D60B9" points="128.915,20.446 165.44,48.735 149.883,62.378 "/>
<polygon fill="#E4E4E4" points="180.934,59.878 148.51,33.5 162.087,22.646 "/>
<polygon fill="#C0131F" points="179.921,1.165 145.53,32.015 162.03,44.5 "/>
</svg>
